<svg xmlns="http://www.w3.org/2000/svg" xmlns:xlink="http://www.w3.org/1999/xlink" viewBox="0 0 241 44" width="241" height="44">
  <defs>
    <path id="a" d="M.016.015h103.838V43.17H.016z"/>
    <path id="c" d="M0 .015h29.904v34.836H0z"/>
    <path id="e" d="M.03.016h88.043v34.838H.031z"/>
  </defs>
  <g fill="none" fill-rule="evenodd">
    <g transform="translate(136.29)">
      <mask id="b" fill="#fff">
        <use xlink:href="#a"/>
      </mask>
      <path d="M38.707 31.641c-5.038 0-9.116-3.86-9.116-8.625 0-4.766 4.078-8.63 9.116-8.63 5.03 0 9.11 3.864 9.11 8.63 0 4.765-4.08 8.625-9.11 8.625zm0-20.128c-6.713 0-12.152 5.147-12.152 11.503 0 6.35 5.439 11.5 12.152 11.5 3.631 0 6.883-1.518 9.11-3.912v3.906h3.04V23.016c0-6.356-5.441-11.503-12.15-11.503zm65.147 0h-3.04v11.514c0 4.76-4.084 8.614-9.115 8.614-5.032 0-9.113-3.86-9.113-8.625V11.513h-3.039v11.503c0 6.35 5.443 11.5 12.152 11.5 3.636 0 6.888-1.518 9.116-3.906v1.06c0 4.765-4.083 8.63-9.116 8.63v2.87c6.713 0 12.155-5.147 12.155-11.5 0-.294-.02-.577-.044-.865h.044V11.513zM65.141 31.64c-5.036 0-9.114-3.86-9.114-8.625 0-4.766 4.078-8.63 9.114-8.63 5.033 0 9.112 3.864 9.112 8.63 0 4.765-4.08 8.625-9.112 8.625zm0-20.128c-3.633 0-6.887 1.52-9.114 3.912V.015h-3.04v23.001c0 6.35 5.442 11.5 12.154 11.5 6.713 0 12.15-5.15 12.15-11.5 0-6.354-5.437-11.503-12.15-11.503zM12.168 31.64c-5.034 0-9.113-3.86-9.113-8.625 0-4.766 4.08-8.63 9.113-8.63 5.035 0 9.118 3.864 9.118 8.63 0 4.765-4.083 8.625-9.118 8.625zm0-20.128c-3.635 0-6.885 1.52-9.113 3.912V.015H.015v23.001c0 6.35 5.441 11.5 12.153 11.5 6.717 0 12.155-5.15 12.155-11.5 0-6.354-5.438-11.503-12.155-11.503z" fill="#636569" mask="url(#b)"/>
    </g>
    <mask id="d" fill="#fff">
      <use xlink:href="#c"/>
    </mask>
    <path d="M26.165 12.228h-6.997a8.13 8.13 0 0 1-4.215 1.17 8.151 8.151 0 0 1-4.22-1.17H3.736C1.674 12.228 0 13.793 0 15.718c0 1.93 1.674 3.491 3.735 3.491h3.74v4.598c0 3.855 3.351 6.978 7.478 6.978s7.474-3.123 7.474-6.978v-4.598h3.738c2.065 0 3.74-1.56 3.74-3.491 0-1.925-1.675-3.49-3.74-3.49zm-2.857 13.903c-.751 2.353-2.606 4.263-5.007 5.193l2.679 2.505c1.46 1.363 3.825 1.363 5.286 0 1.459-1.36 1.459-3.57 0-4.937l-2.958-2.761zm-16.71 0-2.962 2.761c-1.46 1.367-1.46 3.577 0 4.937 1.459 1.363 3.825 1.363 5.284 0l2.683-2.505c-2.399-.93-4.258-2.84-5.004-5.193zm8.355-13.903c3.608 0 6.54-2.732 6.54-6.11 0-3.368-2.932-6.103-6.54-6.103C11.34.015 8.41 2.75 8.41 6.12c0 3.377 2.93 6.11 6.543 6.11z" fill="#FFB71B" mask="url(#d)"/>
    <g transform="translate(38.228)">
      <mask id="f" fill="#fff">
        <use xlink:href="#e"/>
      </mask>
      <path d="M12.167 31.951c-5.026 0-9.1-3.898-9.1-8.71 0-4.812 4.074-8.715 9.1-8.715 5.025 0 9.098 3.903 9.098 8.716 0 4.811-4.073 8.71-9.098 8.71zm0-20.325c-3.63 0-6.878 1.537-9.1 3.95V.016H.032v23.226h.002c0 6.413 5.433 11.612 12.134 11.612 6.7 0 12.133-5.2 12.133-11.612 0-6.417-5.433-11.616-12.133-11.616zm17.448 10.161c.724-4.116 4.456-7.26 8.964-7.26 4.505 0 8.239 3.144 8.965 7.26h-17.93zm8.964-10.161c-6.702 0-12.136 5.2-12.136 11.616 0 6.413 5.434 11.612 12.136 11.612 5.092 0 9.453-3.007 11.25-7.259h-3.38c-1.572 2.602-4.504 4.356-7.87 4.356-4.508 0-8.24-3.138-8.964-7.258h21c.063-.476.1-.961.1-1.451 0-6.417-5.434-11.616-12.136-11.616zm19.805 23.228h3.035V.015h-3.035v34.839zm-5.53 0h3.036V.015h-3.036v34.839zm23.083-2.903c-5.027 0-9.102-3.898-9.102-8.71 0-4.812 4.075-8.715 9.102-8.715 5.024 0 9.097 3.903 9.097 8.716 0 4.811-4.073 8.71-9.097 8.71zm12.136-8.71c0-6.418-5.434-11.615-12.136-11.615-6.702 0-12.137 5.197-12.137 11.616 0 6.413 5.435 11.612 12.137 11.612 3.626 0 6.876-1.533 9.097-3.95v3.944h3.04V23.242z" fill="#FFB71B" mask="url(#f)"/>
    </g>
  </g>
</svg>
